/* XPM */
static char *_947f7d5d9664d24ffc816baaac953ebtteHEp6VhBJkEkVR[] = {
/* columns rows colors chars-per-pixel */
"64 64 3 1 ",
"  c black",
". c #A1FF00",
"X c #9600FF",
/* pixels */
" X X X X X X X X X X X X X X X X X X X X X X X X X X X X X .....",
"X X X X X X X X X X X X X X X X X.................... X ........",
" X X X X X X X X X X X X X X X .................................",
"X X X X X X X X X X X X X X X ................................. ",
" X X X X X X X X X X X X X X ................................. X",
"X X X X X X X X X X.... X X X.......X X ....X X X ..........X X ",
" X X X X X X X X.......X X X ......X X...... X X X X ....X X X X",
"X X X X X X X.......... X X X.....X ........X X X X X.....X X X ",
" X X X X X ............X X X X X X.......... X X X X ..... X X X",
"X X X X X.............X X X X X X...........X X X X X...... X X ",
" X X X X...........X X X X X X X.........X X X X X X X...... X X",
"X X X X.........X X X X X X X X........ X X X X X X X ......X X ",
" X X X........ X X X X X X X X.......X X X X X X X X X ..... X X",
"X X X.......X X X X X X X X X ......X X X X X X X X X X ....X X ",
" X X.......X X X X X X X X X X.....X X X X X X ....X X X.... X X",
"X X.......X X X X X X X X X X ....X X X X.......... X X ....X X ",
" X ......X X X X X X X X X X ..... X ..............X X X.... X X",
"X ......X X X X X X X X X X X.....X................ X X ....X X ",
" ......X X X X X X X X X X X ......................X X X.... X X",
"........X X X X X X X X X X X...............X X.... X X ....X X ",
"........ X X X X X X X.... X ........... X X X ....X X X.... X X",
"........X X X X X ........X X.........X X X X X.... X X ....X X ",
"........ X X X ........... X X X X X X X X X X ....X X X.... X X",
"X X ....X X X.............X X X X X X X X X X ..... X X ....X X ",
" X X.... X ..............X X X X X X X X X X X.....X X X.... X X",
"X X ....X ........... X X X X X X X X X X X X...... X X ....X X ",
" X X.... ......... X X X X X X X X X X X X X ..... X X ..... X X",
"X X ............X X X X X X X X X X X X X X X.....X X X.....X X ",
" X X.......... X X X X X X X X X X X X X X X.....X X X ..... X X",
"X X ......... X X X X X X X X X X X X X X X ..... X X ..... X X ",
" X X........ X X X X X X X X X X X X X X X ......X X X.....X X X",
"X X ....... X X X X X X X X X X X X X X X X.....X X X ..... X X ",
" X X...... X X X X X X X X X X X X X X X X...... X X ..... X X X",
"X X ..... X X X X X X X X X X X X X X X X ..... X X X.....X X X ",
" X X.....X X X X X X X X X X X X X X X X ......X X X ..... X X X",
"X X ..... X X X X X X X X X X X X X X X X.....X X X ..... X X X ",
" X X.....X X X X X X X X X X X X X X X X...... X X X.....X X X X",
"X X ..... X X X X X X X X X X X X X X X...... X X X...... X X X ",
" X X.... X X X X X X X X...... X X X X ......X X X ..... X X X X",
"X X ....X X X X X X X.........X X X X ......X X X X.....X X X X ",
" X X.... X X X X X............ X X X X.....X X X X.....X X X X X",
"X X ....X X X X...............X X X X...... X X X ..... X X X X ",
" X X.... X X ..............X X X X X...... X X X X.....X X X X X",
"X X ..... X ............X X X X X X.......X X X X ....X X X X X ",
" X X.....X ..........X X X X X X X ......X X X X ..... X X X X X",
"X X ..............X X X X X X X X ......X X X X X.....X X X X X ",
" X X ........... X X X X X X X X ......X X X X X ..... X X X X X",
"X X X.......... X X X X X X X X ....... X X X X ..... X X X X X ",
" X X X........ X X X X X X X X X...... X X X X X.....X X X X X X",
"X X X X.....X X X X X X X X X X...... X X X X X...... X X X X X ",
" X X X X X X X X X X X X X X X ..... X X X X X ..... X X X X X X",
"X X X X X X X X X X X X X X X X.....X X X X X ......X X X X X X ",
" X X X X X X X X X X X X X X X.....X X X X X X.....X X X X X X X",
"X X X X X X X X X X X X X X X ..... X X X X X...... X X X X X X ",
" X X X X X X X X X X X X X X X.....X X X X X ..... X X X X X X X",
"X X X X X X X X X X X X X X X ....X X X X X ......X X X X X X X ",
" X X X X X X X X X X X X X X X.... X X X X X.....X X X X X X X X",
"X X X X X X X X X X X X X X X ....X X X X X...... X X X X X X X ",
" X X X X X X X X X X X X X X X.... X X X X ..... X X X X X X X X",
"X X X X X X X X X X X X X X X ....X X X X ......X X X X X X X X ",
" X X X X X X X X X X X X X X X X X X X X ......X X X X X X X X X",
"X X X X X X X X X X X X X X X X X X X X ....... X X X X X X X X ",
" X X X X X X X X X X X X X X X X X X X X...... X X X X X X X X X",
"X X X X X X X X X X X X X X X X X X X X...... X X X X X X X X X "
};
