/* XPM */
static char *_db1394988164854e58a69b1191d988eutHuB9FWBpsGsT0r[] = {
/* columns rows colors chars-per-pixel */
"64 64 3 1 ",
"  c black",
". c #A1FF00",
"X c #9600FF",
/* pixels */
" X X X X X X X X X X X X X X X X X X X X X X X X X X X X X X X X",
"X X X X X X X X X X X X X X X X X X X X X X X X X X X X X X X X ",
" X X X X X X X X X X X X X X X X X X X X X X X X X X X X X X X X",
"X X X X X X X X X X X X X X X X X X X X X X X X X X X X X X X X ",
" X X X X X X X X X X X X X X X X X X X X X X X X X X X X X X X X",
"X X X X X X X X X X X X X X X X X X X X X X X X X X X X X X X X ",
" X X X X X X X X X.... X X X X X X X X X X X X X X X...... X X X",
"X X X X X X X X X ....X X X X X X X X X X X X X X X ....... X X ",
" X X X X X X X X X.... X X X X X X X X X X.....X X ......... X X",
"X X X X X X X X X ....X X X X X X X X X X ....... X.......... X ",
" X X X X X X X X X.... X X X X X X X X X ........X ........... X",
"X X X X X X X X X ....X X X X X X X X ........... X...........X ",
" X X X X X X X X ..... X X X X X X X X............ ....X.......X",
"X X X X X X X X X.....X X X X X X X X ............X.....X...... ",
" X X X X X X X X ..... X X X X X X X X............ ..... X.....X",
"X X X X ....X X X.... X X X X........ X...... ....X.....X ..... ",
" X X X X.... X X ....X X ............. ......X.... X.... X ....X",
"X X X X ....X X X.... X X.............X.....X.....X ....X X.... ",
" X X X X.... X X ....X X ......................... X.....X ....X",
"X X X X ....X X X.... X X.......X ................X ..... X.... ",
" X X X X.... X X ....X X ..... X X.....X.........X X.....X ....X",
"X X X X ....X X X.... X ......X X X.... ......... X X.... ..... ",
" X X X X.... X X.....X X.....X X X ....X........ X X ..........X",
"X X X X ..... X ..... X ..... X X X.............. X X.......... ",
" X X X X.....X X.....X X.... X X X ..... ......... X X ........X",
"X X X X ......X ....X X ....X X X X.....X.......... X X...... X ",
" X X X X...... X.... X X.....X X X X.... ........... X X X X X X",
"X X X X ......X ....X X ..... X X X ....X ..........X X X X X X ",
" X X X X...... X.... X X.....X X X X.... X.... ......X X X X X X",
"X X X X ......X ....X X X.... X X X ....X X X X ......X X X X X ",
" X X X X.......X.... X X ..... X X X.... X X X X...... X X X X X",
"X X X X ....... ....X X X.....X X X ....X X X X X.....X X X X X ",
" X X X X............ X X ......X X X.... X X X X ..... X X X X X",
"X X X X ............X X X ..... X X ....X X X X X X X X X X X X ",
" X X X X............ X X X...... X X.... X X X X X X X X X X X X",
"X X X X ............X X X X.....X X ....X X X X X X X X X X X X ",
" X X X X............ X X X ......X ..... X X X X X X X X X X X X",
"X X X X ............X X X X ............X X X X X X X X X X X X ",
" X X X X............ X X X X............ X X X X X X X X X X X X",
"X X X X ....X.......X X X X X.......... X X X X X X X X X X X X ",
" X X X X.... ....... X X X X X........ X X X X X X X X X X X X X",
"X X X X ....X ......X X X X X X X X X X X X X X X X X X X X X X ",
" X X X X.... X...... X X X X X X X X X X X X X X X X X X X X X X",
"X X X X ....X X.....X X X X X X X X X X X X X X X X X X X X X X ",
" X X X X.... X ..... X X X X X X X X X X X X X X X X X X X X X X",
"X X X X ....X X ....X X X X X X X X X X X X X X X X X X X X X X ",
" X X X X.... X X.... X X X X X X X X X X X X X X X X X X X X X X",
"X X X X X X X X X X X X X X X X X X X X X X X X X X X X X X X X ",
" X X X X X X X X X X X X X X X X X X X X X X X X X X X X X X X X",
"X X X X X X X X X X X X X X X X X X X X X X X X X X X X X X X X ",
" X X X X X X X X X X X X X X X X X X X X X X X X X X X X X X X X",
"X X X X X X X X X X X X X X X X X X X X X X X X X X X X X X X X ",
" X X X X X X X X X X X X X X X X X X X X X X X X X X X X X X X X",
"X X X X X X X X X X X X X X X X X X X X X X X X X X X X X X X X ",
" X X X X X X X X X X X X X X X X X X X X X X X X X X X X X X X X",
"X X X X X X X X X X X X X X X X X X X X X X X X X X X X X X X X ",
" X X X X X X X X X X X X X X X X X X X X X X X X X X X X X X X X",
"X X X X X X X X X X X X X X X X X X X X X X X X X X X X X X X X ",
" X X X X X X X X X X X X X X X X X X X X X X X X X X X X X X X X",
"X X X X X X X X X X X X X X X X X X X X X X X X X X X X X X X X ",
" X X X X X X X X X X X X X X X X X X X X X X X X X X X X X X X X",
"X X X X X X X X X X X X X X X X X X X X X X X X X X X X X X X X ",
" X X X X X X X X X X X X X X X X X X X X X X X X X X X X X X X X",
"X X X X X X X X X X X X X X X X X X X X X X X X X X X X X X X X "
};
