/* XPM */
static char *_d087a8288454dddf2a767cd4e44d2e6MrCDuSV7OS4NspPN[] = {
/* columns rows colors chars-per-pixel */
"64 64 3 1 ",
"  c black",
". c #A1FF00",
"X c #9600FF",
/* pixels */
" X X X X X X X X X X X X X X X X X X X X X X X X X X X X X X X X",
"X X X X X X X X X X X X X X X X X X X X X X X X X X X X X X X X ",
" X X X X X X X X X X X X X X X X X X X X X X X X X X X X X X X X",
"X X X X X X X X X X X X X X X X X X X X X X X X X X X X X X X X ",
" X X X X X X X X X X X X X X X X X X X X X X X X X X X X X X X X",
"X X X X X X X X X X X X X X X X X X X X X X X X X X X X X X X X ",
" X X X X X X X X X X X X X X X X X X X X X X X X X X X X X X X X",
"X X X X X X X X X X X X X X X X X X X ....X X X X X X X X X X X ",
" X X X X X X X........ X X X X X X X X.... X X ....X X X X X X X",
"X X X X X X ..........X X X X X X X X ....X X X...... X X X X X ",
" X X X X X X.......... X X X X X X X X.... X X ....... X X X X X",
"X X X X X ............X X X X ....X X ..... X X........ X X X X ",
" X X X X ........X X X X X X X.... X X.....X X ..........X X X X",
"X X X X X.......X X X X X X X ....X X ..... X X............ X X ",
" X X X X ......X X X X X X X X.... X X ....X X ............. X X",
"X X X X X.... X X X X X X X X ....X X X.... X ............... X ",
" X X X X.....X X X X X X X X X.... X X ....X X.....X X........ X",
"X X X X ..... X X X X X X X X ....X X X.... X ..... X X ......X ",
" X X X X...... X X X X X X X X.... X X ....X X.....X X X ..... X",
"X X X X ......... X X X X X X ....X X X.... X ....X X X X ..... ",
" X X X X.................X X X.... X X ....X ..... X X X X.....X",
"X X X X X.................. X ....X X X.... X.....X X X X ..... ",
" X X X X X ................X X.... X X.....X ..... X X X X ....X",
"X X X X X X X ............. X ....X X ..... X.....X X X X X.... ",
" X X X X X X X X X X X.....X X.... X X.....X ..... X X X X ....X",
"X X X X X X X X X X X ..... X ....X X.....X X.... X X X X X.... ",
" X X X X X X X X X X X.....X X.... X ..... X.....X X X X X ....X",
"X X X X X X X X X X X...... X ....X ......X ..... X X X X ..... ",
" X X X X X X X X X X ..... X X.... X.....X X.....X X X X X.....X",
"X X X X X X X X X X ......X X ....X...... X ..... X X X X ..... ",
" X X X X X X X X X X.....X X X.... ..... X ......X X X X ..... X",
"X X X X X X X X X X ..... X X ....X.....X X.....X X X X X.....X ",
" X X X X X X X X X X.... X X X.........X X ..... X X X X...... X",
"X X X X X X X X X X.....X X X ......... X X.....X X X X...... X ",
" X X X X X X X X X ..... X X X.........X X ..... X X X ......X X",
"X X X X X X X X X ......X X X ........X X X.... X X X ......X X ",
" X X X X X X X X X.....X X X X........ X X ....X X X ......X X X",
"X X X X X X X X X ..... X X X ....... X X X X X X X........ X X ",
" X X X X X X X X ..... X X X X.......X X X X X X X........ X X X",
"X X X X X X X X X.....X X X X ......X X X X X X ......... X X X ",
" X X X X X X X X ..... X X X X...... X X X X X ......... X X X X",
"X X X X X X X X ..... X X X X X.... X X X X X ........X X X X X ",
" X X X X X X X X.....X X X X X ....X X X X X.........X X X X X X",
"X X X X X X X X...... X X X X X X X X X X X........ X X X X X X ",
" X X X X X X X ..... X X X X X X X X X X X........ X X X X X X X",
"X X X X X X X ......X X X X X X X X X X X........ X X X X X X X ",
" X X X X X X X.....X X X X X X X X X X X ......X X X X X X X X X",
"X X X X X X X...... X X X X X X X X X X ......X X X X X X X X X ",
" X X X X X ....... X X X X X X X X X X ......X X X X X X X X X X",
"X X X X X ........X X X X X X X X X X ....... X X X X X X X X X ",
" X X X X X.......X X X X X X X X X X X...... X X X X X X X X X X",
"X X X X X ......X X X X X X X X X X X...... X X X X X X X X X X ",
" X X X X X.... X X X X X X X X X X X ..... X X X X X X X X X X X",
"X X X X X ....X X X X X X X X X X X ......X X X X X X X X X X X ",
" X X X X X X X X X X X X X X X X X ......X X X X X X X X X X X X",
"X X X X X X X X X X X X X X X X X X...... X X X X X X X X X X X ",
" X X X X X X X X X X X X X X X X X...... X X X X X X X X X X X X",
"X X X X X X X X X X X X X X X X X...... X X X X X X X X X X X X ",
" X X X X X X X X X X X X X X X X ......X X X X X X X X X X X X X",
"X X X X X X X X X X X X X X X X X.....X X X X X X X X X X X X X ",
" X X X X X X X X X X X X X X X X ....X X X X X X X X X X X X X X",
"X X X X X X X X X X X X X X X X X X X X X X X X X X X X X X X X ",
" X X X X X X X X X X X X X X X X X X X X X X X X X X X X X X X X",
"X X X X X X X X X X X X X X X X X X X X X X X X X X X X X X X X "
};
