/* XPM */
static char *_a4ccf4c1e04466d8e2b2131c1001c53UCA3Eo0rKa3FrzLR[] = {
/* columns rows colors chars-per-pixel */
"64 64 6 1 ",
"  c black",
". c #5A2772",
"X c #DFFF26",
"o c #8D17C5",
"O c #BBBBBB",
"+ c white",
/* pixels */
"                                                                ",
"                                                                ",
"                                                                ",
"                                oooooo        oooooooooo        ",
"         oooo                  oooooo  ooooooooooooooooooo      ",
"           ooooooo            ooooooooooooooooooooooooooo       ",
"           oooooooo   oooooooooooooooooooooooooo.oooooooo       ",
"         ooooooooooooooooooooooooooooooooooooo..o+oooooo        ",
"     o  ooooooooooooooooooooooooooooXoooooo....ooooooo          ",
"       ooooooooooooOooooooo..oo..oooooooo..ooo..oooooo oo       ",
"    oooooooooooooOOooooooo......oooooo...oooo...ooooXoooooo     ",
"   o oooooooooooOOooooooooo.....oooooo....ooo.o.oooooooooooo    ",
"     ooooo+ooooooooooooooOoooo.oooooooooOo......ooooooo.oooo    ",
"      oooooooooooooooooooOOOOo.oooooooooOooo.ooooooOooo.oooo    ",
"   oooooooooXoooooooooooooooOO.ooooooooooooo..oooooOooo.oooo    ",
"   oooooooooooo..ooooooooooooo..ooooooooooo..ooooooOooo.oo      ",
"   ooooooooooo..ooooooooooooooo.ooooooooooo.oooooooooooooo      ",
"   oooooooooo..ooooooooooooooooooooooooo...oooooooooooooooo     ",
"    ooooooooo.ooooooo+ooooooooooooooooo.ooooooo+ooooooooooo     ",
"    oooooooo..ooooooooooooooooooooooo..ooooooooooooooooooooo    ",
"   o oooooooo..ooooooooooooooooooooo.ooooooooooooo.ooooooooo    ",
"      ooooooo..oooooooooooooXoooooo.oooooooooooooo..ooo  ooo    ",
"      ooooooo.oooooooooooooooooooooooooooXoooooo...oooo   oo    ",
"       oooooooooooooooooooooooooooooooooooooo...oooooooo   o    ",
"     ooooooooooooooooOooooooooooooooo.ooooo...ooooooooooo       ",
"    ooo+oooooooooooooOOoooooo+ooooo..oooooo.ooooooooooooo       ",
"    oooo..ooooooooooooooooooooooooo.ooooooo.oooooooooooooo      ",
"  ooooooo.ooooooooooooooooooooooooo..oooooo.ooooooooooooooo     ",
"   ooooo..ooooooooooooooooooooooooooo.ooooo.ooooooOOooooooo     ",
"   ooooo.oooooooooooooooooooooooooooooooooo.ooooooOoooooooo     ",
"    ooo..oooooooooooooooooooooooooooooooooooooooooOoooooooo     ",
"      o.ooooOoooooooooooooooooooooooooooooooooooooOoooooooo     ",
"       .ooooOoooooo+oooooooooooooooOOoooooooXoooooooooooooo     ",
"       ..oooOOoooooooooooooooooooooooooooooooooooooooooooooo    ",
"      ooooooooooooooooooooXooo..ooooooooooooooooooo..ooooooo    ",
"     oooooooooooooooooooooooooo..ooooooooooooooooo..oooooooo    ",
"     ooooooooooooooooooooooooooo.ooooooooooooooooo..oooooooo    ",
"    oooooooooooooooooooooooooooo.oooooooooooooooooo..ooooooo    ",
"    oooooooooooooooooooooo+ooooo..ooo..ooooooooooooo.oooooooo   ",
"    oooooooooooooooooooooooooooooo.....oooo+ooooooooo.ooooooo   ",
"   ooooooXooooooooooooooooooooooooooo.ooooooooooooooo..oooooo   ",
"       oooooooooo.o.ooooooooooooooooo.ooooooooooooooooooooooo   ",
"      ooooooo.oo....oooooooooOooooooo.oooooooooooooooooooooo    ",
"    oooooooo....o..ooooooooooOooooooo.oooooooooooooooo...ooo    ",
"    ooooooo...ooooooooooooooOOooooooo..ooooooooooooooooo.ooo    ",
"    oooooo..+.oooooooooooooooooooooooo..oooooooooooooooo.ooo    ",
"   ooooooo..oooooooooooooooooooooooooooooooooooooooooooo.oo     ",
"  ooooooo...oooooooooooooooooooooooooooooooooooooooooooo.oo     ",
"   ooooo.o..ooooooooooooooooooooooooooooooooooOoooooooo..oo     ",
"   ooooo.oo...ooooooooooooooooooooooooooooooooooo oooo..ooo     ",
"   ooooo.oo...ooooooooooooooooooooooooooooooooooo  oo..oooo     ",
"  ooooooo..ooooooo+ooooooooooooooooooooooooooooooo oooooooo     ",
"  ooooooooooooooooooooooooOooooooooooooooo..ooo     ooooooo     ",
"  ooooooooooooooooooooooooooooooooooooXoooo..ooo     oooooo     ",
"  oooooooooooooooooooooooooooooooooooooooooo...ooo     oooo     ",
"   oooooooooooooooooooooooooooooooooooooooooo..oo       oo      ",
"    ooo+ooooooooo   oooooooooooo+oooooooooooo.ooo               ",
"      oooooooo           oooooooooooooOoooo..oooo               ",
"        ooooo          ooooooooooooooooooooooooo                ",
"                               oooooooooooooooo                 ",
"                                                                ",
"                                                                ",
"                                                                ",
"                                                                "
};
