/* XPM */
static char *_5401ef130a041769f87d70de91b4fb5CTPVIfwaGOuUmtEM[] = {
/* columns rows colors chars-per-pixel */
"64 64 3 1 ",
"  c black",
". c #A1FF00",
"X c #9600FF",
/* pixels */
" X X X X X X X X X X X X X X X X X X X X X X X X X X X X X X X X",
"X X X X X X X X X X X X X X X X X X X X X X X X X X X X X X X X ",
" X X X X X X X X X X X X X X X X X X X X X X X X X X X X X X X X",
"X X X X X X X X X X X X X X X X X X X X X X X X X X X X X X X X ",
" X X X X X X X X X X X X X X X X X X X X X X X X X X X X X X X X",
"X X X X X X X X X X X X X X X X X X X X X X X X X X X X X X X X ",
" X X X X X X X X X X X X X X X X X X X X X X X X X X X X X X X X",
"X X X X X X X X X X X X X X X X X X X X X X X X X X X X X X X X ",
" X X X X X X X X X X X X X X X X X X X X X X X X X X X X X X X X",
"X X X X X X X X X X X X X X X X X X X X X X X X X X X X X X X X ",
" X X X X X X X X X X X X X X X X X X X X X X X X X X X X X X X X",
"X X X X X X X X X X X X X X X.........X X X X X X X X X X X X X ",
" X X X X X X X X X X X X X...............X X X X X X X X X X X X",
"X X X X X X X X X X X X ................... X X X X X X X X X X ",
" X X X X X X X X X X X ..................... X X X X X X X X X X",
"X X X X X X X X X X X ........X X X X........ X X X X X X X X X ",
" X X X X X X X X X X ......X X X X X X X...... X X X X X X X X X",
"X X X X X X X X X X ......X X X X X X X X...... X X X X X X X X ",
" X X X X X X X X X ..... X X X X X X X X X ..... X X X X X X X X",
"X X X X X X X X X ..... X X X X X X X X X X ..... X X X X X X X ",
" X X X X X X X X X.... X X X X X X X X X X X ....X X X X X X X X",
"X X X X X X X X X.....X X X X X X X X X X X X.....X X X X X X X ",
" X X X X X X X X ....X X X X X X X X X X X X X.... X X X X X X X",
"X X X X X X X X ..... X X X X X X X X X X X X ..... X X X X X X ",
" X X X X X X X X.... X X X X X X X X X X X X X ....X X X X X X X",
"X X X X X X X X ....X X X X X X X X X X X X X X.... X X X X X X ",
" X X X X X X X ....X X X X X X X X X X X X X X X.... X X X X X X",
"X X X X X X X X.... X X X X X X X X X X X X X X ....X X X X X X ",
" X X X X X X X ....X X X X X X X X X X X X X X X.... X X X X X X",
"X X X X X X X X.... X X X X X X X X X X X X X X ....X X X X X X ",
" X X X X X X X ....X X X X X X X X X X X X X X X.... X X X X X X",
"X X X X X X X X.... X X X X X X X X X X X X X X ....X X X X X X ",
" X X X X X X X ....X X X X X X X X X X X X X X X.... X X X X X X",
"X X X X X X X X.... X X X X X X X X X X X X X X ....X X X X X X ",
" X X X X X X X ....X X X X X X X X X X X X X X X.... X X X X X X",
"X X X X X X X X.... X X X X X X X X X X X X X X ....X X X X X X ",
" X X X X X X X X.... X X X X X X X X X X X X X ....X X X X X X X",
"X X X X X X X X ....X X X X X X X X X X X X X X.... X X X X X X ",
" X X X X X X X X.....X X X X X X X X X X X X X.....X X X X X X X",
"X X X X X X X X X.... X X X X X X X X X X X X ....X X X X X X X ",
" X X X X X X X X ..... X X X X X X X X X X X ..... X X X X X X X",
"X X X X X X X X X ....X X X X X X X X X X X X.... X X X X X X X ",
" X X X X X X X X X.....X X X X X X X X X X X.....X X X X X X X X",
"X X X X X X X X X X.....X X X X X X X X X X.....X X X X X X X X ",
" X X X X X X X X X X...... X X X X X X X ......X X X X X X X X X",
"X X X X X X X X X X X...... X X X X X X ......X X X X X X X X X ",
" X X X X X X X X X X X........ X X X ........X X X X X X X X X X",
"X X X X X X X X X X X X.....................X X X X X X X X X X ",
" X X X X X X X X X X X X...................X X X X X X X X X X X",
"X X X X X X X X X X X X X ............... X X X X X X X X X X X ",
" X X X X X X X X X X X X X X ......... X X X X X X X X X X X X X",
"X X X X X X X X X X X X X X X X X X X X X X X X X X X X X X X X ",
" X X X X X X X X X X X X X X X X X X X X X X X X X X X X X X X X",
"X X X X X X X X X X X X X X X X X X X X X X X X X X X X X X X X ",
" X X X X X X X X X X X X X X X X X X X X X X X X X X X X X X X X",
"X X X X X X X X X X X X X X X X X X X X X X X X X X X X X X X X ",
" X X X X X X X X X X X X X X X X X X X X X X X X X X X X X X X X",
"X X X X X X X X X X X X X X X X X X X X X X X X X X X X X X X X ",
" X X X X X X X X X X X X X X X X X X X X X X X X X X X X X X X X",
"X X X X X X X X X X X X X X X X X X X X X X X X X X X X X X X X ",
" X X X X X X X X X X X X X X X X X X X X X X X X X X X X X X X X",
"X X X X X X X X X X X X X X X X X X X X X X X X X X X X X X X X ",
" X X X X X X X X X X X X X X X X X X X X X X X X X X X X X X X X",
"X X X X X X X X X X X X X X X X X X X X X X X X X X X X X X X X "
};
